<svg width="40" height="40" viewBox="0 0 40 40" fill="none" xmlns="http://www.w3.org/2000/svg">
<path d="M25.0145 14.7663C25.0145 17.4367 23.1504 19.6707 20.0629 19.6707C16.9753 19.6707 15.1113 17.4367 15.1113 14.7663C15.1113 12.0958 16.9753 10 20.0629 10C23.1504 10 25.0145 12.0958 25.0145 14.7663Z" fill="#E5097F"/>
<path d="M20.0629 18.2891C15.9478 18.2891 12.7827 23.2544 11.174 26.444C10.5464 27.6883 11.4823 29.065 12.8759 29.065H27.2499C28.6435 29.065 29.5794 27.6883 28.9518 26.444C27.3431 23.2544 24.1779 18.2891 20.0629 18.2891Z" fill="#E5097F"/>
<path fill-rule="evenodd" clip-rule="evenodd" d="M19.1473 2.99319C28.2383 4.04833 44.3004 8.55044 38.9245 20.0808C36.4438 19.8425 35.9213 18.5439 34.8242 15.7985C32.3318 9.56169 27.8437 6.86467 22.2435 4.85929C21.1118 4.45448 19.4711 4.28498 19.1473 2.99319Z" fill="#B8DC3B"/>
<path d="M0 20C0 31.0457 9.09764 40 20.3201 40C26.8457 40 39.477 34.2563 38.9245 24.3243C38.9245 24.3243 36.042 29.9136 33.5135 32.4324C29.8173 36.1146 24.843 38 20.3201 38C11.4522 38 2.03201 31.0457 2.03201 20C2.27276 10.8 9.09764 1.73333 20.3201 1.73333C25.3948 1.73333 31.4899 4.60616 33.1472 5.44218C33.5616 3.40136 25.3948 0 20.3201 0C9.09764 0 0 8.9543 0 20Z" fill="#B8DC3B"/>
</svg>
