<svg width="130" height="130" viewBox="0 0 130 130" fill="none" xmlns="http://www.w3.org/2000/svg">
<circle cx="65" cy="65" r="65" fill="#E5097F"/>
<path d="M72.5 48C70.9208 48.9739 69.6198 49.9838 68.5705 50.9233C66.8111 52.4986 63.446 52.3385 61.9563 50.506C59.334 47.2803 55.1601 43.5 50 43.5C41.1121 43.5 34.0001 48.4917 34 57.1629C34 59.7858 34.7222 62.4197 35.9462 65M94.5014 64C89.2416 76.5008 71.6602 87.9509 66.4604 91.1296C65.5568 91.6819 64.4365 91.678 63.533 91.1255C62.4683 90.4746 60.887 89.4783 59 88.1985" stroke="#FDFFFC" stroke-width="6" stroke-linecap="round" stroke-linejoin="round"/>
<path d="M89.8395 33.2429C90.4801 31.4144 93.0862 31.4738 93.6427 33.3296L95.425 39.273C95.6739 40.103 96.4289 40.6783 97.2951 40.698L103.498 40.8396C105.435 40.8838 106.184 43.3807 104.591 44.4835L99.4894 48.0152C98.777 48.5083 98.4632 49.4041 98.712 50.2341L100.494 56.1775C101.051 58.0333 98.9075 59.517 97.3665 58.3427L92.4311 54.582C91.7419 54.0569 90.793 54.0353 90.0806 54.5284L84.9788 58.0601C83.3859 59.1629 81.3124 57.5829 81.953 55.7544L84.0045 49.8985C84.291 49.0808 84.0183 48.1716 83.3291 47.6464L78.3938 43.8857C76.8527 42.7115 77.7146 40.2513 79.6516 40.2955L85.8548 40.437C86.7211 40.4568 87.5015 39.9165 87.788 39.0988L89.8395 33.2429Z" fill="#FDFFFC"/>
<path d="M41.7639 68.8541C42.3626 67.0115 44.9694 67.0115 45.5681 68.8541L46.9152 73C47.183 73.8241 47.9509 74.382 48.8173 74.382H53.1766C55.1141 74.382 55.9196 76.8612 54.3522 78L50.8255 80.5624C50.1245 81.0717 49.8312 81.9744 50.0989 82.7985L51.446 86.9444C52.0447 88.787 49.9358 90.3193 48.3683 89.1805L44.8416 86.6181C44.1406 86.1088 43.1914 86.1088 42.4904 86.6181L38.9637 89.1805C37.3963 90.3193 35.2873 88.787 35.886 86.9444L37.2331 82.7985C37.5009 81.9744 37.2075 81.0717 36.5066 80.5624L32.9798 78C31.4124 76.8612 32.2179 74.382 34.1554 74.382H38.5147C39.3811 74.382 40.1491 73.8241 40.4168 73L41.7639 68.8541Z" fill="#FDFFFC"/>
</svg>
