<svg width="130" height="130" viewBox="0 0 130 130" fill="none" xmlns="http://www.w3.org/2000/svg">
<circle cx="65" cy="65" r="65" fill="#B8DC3B"/>
<path d="M93 57.1629C93 60.3197 91.6691 63.7407 89.2884 67.2844C86.9225 70.8061 83.6708 74.2233 80.2042 77.31C74.2087 82.6485 67.8327 86.769 65 88.5061C62.1673 86.7691 55.7913 82.6485 49.7957 77.31C46.3291 74.2233 43.0774 70.8061 40.7115 67.2844C38.3309 63.7408 37 60.3198 37 57.1629C37 53.7323 38.3693 51.1754 40.5513 49.4142C42.7984 47.6005 46.0882 46.5 50 46.5C52.4102 46.5 54.7135 47.6691 56.8086 49.4675C58.8887 51.2531 60.5001 53.4383 61.4579 54.9172C62.339 56.2774 63.7929 56.8132 65.0284 56.794C66.2629 56.7749 67.6917 56.1965 68.5327 54.8243C69.4326 53.3561 70.9589 51.2022 72.9982 49.4451C75.0336 47.6913 77.3776 46.5 80 46.5C84.8491 46.5 88.043 47.6831 89.9913 49.3964C91.8818 51.0588 93 53.5728 93 57.1629Z" stroke="#FDFFFC" stroke-width="6"/>
<path d="M101.112 56.8483L106.882 55.5168" stroke="#FDFFFC" stroke-width="4" stroke-linecap="round"/>
<path d="M28.7695 56.8483L22.9999 55.5168" stroke="#FDFFFC" stroke-width="4" stroke-linecap="round"/>
<path d="M95.7861 42.2022L99.3367 36.8764" stroke="#FDFFFC" stroke-width="4" stroke-linecap="round"/>
<path d="M33.6514 42.2022L30.1008 36.8764" stroke="#FDFFFC" stroke-width="4" stroke-linecap="round"/>
<path d="M50.5166 33.7697L49.629 28" stroke="#FDFFFC" stroke-width="4" stroke-linecap="round"/>
<path d="M78.921 33.7697L79.8086 28" stroke="#FDFFFC" stroke-width="4" stroke-linecap="round"/>
<path d="M64.7188 41.3146V35.1011" stroke="#FDFFFC" stroke-width="4" stroke-linecap="round"/>
<path d="M47.8535 91.0225L43.4153 96.3483" stroke="#FDFFFC" stroke-width="4" stroke-linecap="round"/>
<path d="M81.584 91.0225L86.0222 96.3483" stroke="#FDFFFC" stroke-width="4" stroke-linecap="round"/>
<path d="M95.7861 75.9326L102 79.4832" stroke="#FDFFFC" stroke-width="4" stroke-linecap="round"/>
<path d="M33.6514 75.9326L27.4379 79.4832" stroke="#FDFFFC" stroke-width="4" stroke-linecap="round"/>
<path d="M64.7188 107V101.674" stroke="#FDFFFC" stroke-width="4" stroke-linecap="round"/>
</svg>
