<svg width="130" height="130" viewBox="0 0 130 130" fill="none" xmlns="http://www.w3.org/2000/svg">
<circle cx="65" cy="65" r="65" fill="#E5097F"/>
<path d="M96 57.1629C96 73.0886 69.3732 89.4175 65.4742 91.7232C65.1703 91.9029 64.8297 91.9029 64.5258 91.7232C60.6268 89.4175 33.9998 73.0886 34 57.1629C34.0001 48.4917 41.1121 43.5 50 43.5C56.8083 43.5 61.8999 50.0811 63.9759 53.2863C64.424 53.978 65.5443 53.9593 65.9749 53.2566C67.946 50.0407 72.8355 43.5 80 43.5C90.5929 43.5 96 48.6618 96 57.1629Z" fill="#FDFFFC"/>
<path d="M106.5 52.8453C106.5 79.3111 65.1484 104 65.1484 104C65.1484 104 23.5 79.3111 23.5 52.8453C23.5 41.7519 35.5 33.5 45.2774 33.5C59.123 33.5 65.1484 41.7519 65.1484 41.7519C65.1484 41.7519 72.1078 33.5 86.7226 33.5C96.5 33.5 106.5 41.4225 106.5 52.8453Z" stroke="#FDFFFC" stroke-width="4" stroke-linecap="round" stroke-linejoin="round" stroke-dasharray="10 10"/>
</svg>
