<svg width="212" height="53" viewBox="0 0 212 53" fill="none" xmlns="http://www.w3.org/2000/svg">
<path fill-rule="evenodd" clip-rule="evenodd" d="M25.9287 40.4039C15.1796 39.1185 -3.80049 33.731 2.60971 20.1324C5.5431 20.4245 6.15541 21.9609 7.441 25.2089C10.3617 32.5876 15.6588 35.793 22.2745 38.1861C23.6113 38.6692 25.5514 38.8765 25.9287 40.4039Z" fill="#B8DC3B"/>
<path fill-rule="evenodd" clip-rule="evenodd" d="M38.1164 38.7257C31.3348 44.5146 17.4112 53.0024 12.4754 41.5611C14.2894 39.9487 15.5903 40.4327 18.3357 41.4612C24.5727 43.7976 29.5224 42.3752 34.6977 39.7033C35.7431 39.1631 36.9517 38.1045 38.1164 38.7257Z" fill="#B8DC3B"/>
<path fill-rule="evenodd" clip-rule="evenodd" d="M16.3022 12.596C27.0513 13.8815 46.0315 19.269 39.6212 32.8676C36.6879 32.5754 36.0755 31.0391 34.79 27.7911C31.8693 20.4124 26.5722 17.2069 19.9565 14.8139C18.6197 14.3308 16.6795 14.1235 16.3022 12.596Z" fill="#B8DC3B"/>
<path fill-rule="evenodd" clip-rule="evenodd" d="M4.11458 14.2743C10.8962 8.48541 24.8197 -0.00241701 29.7556 11.4389C27.9416 13.0513 26.6406 12.5673 23.8952 11.5388C17.6583 9.2024 12.7085 10.6248 7.53329 13.2967C6.48784 13.8369 5.27929 14.8955 4.11458 14.2743Z" fill="#B8DC3B"/>
<path d="M9.51036 24.8698C10.5281 30.2952 19.5355 33.2977 19.5355 33.2977C19.5355 33.2977 26.8989 27.5363 25.8812 22.1109C25.3353 19.2008 23.5026 18.4563 21.4372 18.8044C18.8509 19.2402 17.6958 23.4903 17.6958 23.4903C17.6958 23.4903 15.0671 19.8779 12.5581 20.3007C10.4927 20.6488 9.01673 22.2382 9.51036 24.8698Z" fill="#E5097F"/>
<path d="M24.4404 32.2411C23.5178 35.086 27.1645 38.7147 27.1645 38.7147C27.1645 38.7147 32.3015 37.7479 33.2241 34.903C33.719 33.3771 33.012 32.5748 31.9039 32.2389C30.5162 31.8184 28.8323 33.5721 28.8323 33.5721C28.8323 33.5721 28.486 31.2032 27.1398 30.7952C26.0316 30.4594 24.8879 30.8612 24.4404 32.2411Z" fill="#E5097F"/>
<path d="M50.5391 43.7012C50.5391 43.1504 50.6172 42.6602 50.7734 42.2305C50.9336 41.7969 51.1602 41.4316 51.4531 41.1348C51.75 40.8379 52.1094 40.6113 52.5312 40.4551C52.9531 40.2988 53.4277 40.2207 53.9551 40.2207C54.4785 40.2207 54.9512 40.3008 55.373 40.4609C55.7988 40.6211 56.1602 40.8516 56.457 41.1523C56.7578 41.4492 56.9883 41.8105 57.1484 42.2363C57.3125 42.6621 57.3945 43.1406 57.3945 43.6719C57.3945 44.207 57.3125 44.6875 57.1484 45.1133C56.9883 45.5352 56.7578 45.8945 56.457 46.1914C56.1602 46.4844 55.8008 46.7109 55.3789 46.8711C54.9609 47.0273 54.4941 47.1055 53.9785 47.1055C53.4512 47.1055 52.9746 47.0273 52.5488 46.8711C52.127 46.7109 51.7656 46.4844 51.4648 46.1914C51.168 45.8945 50.9395 45.5371 50.7793 45.1191C50.6191 44.6973 50.5391 44.2246 50.5391 43.7012ZM52.2676 43.6602C52.2676 44.0078 52.3105 44.3105 52.3965 44.5684C52.4863 44.8262 52.6074 45.041 52.7598 45.2129C52.9121 45.3809 53.0918 45.5078 53.2988 45.5938C53.5059 45.6758 53.7305 45.7168 53.9727 45.7168C54.2148 45.7168 54.4375 45.6758 54.6406 45.5938C54.8477 45.5078 55.0254 45.3809 55.1738 45.2129C55.3262 45.041 55.4453 44.8262 55.5312 44.5684C55.6172 44.3066 55.6602 43.998 55.6602 43.6426C55.6602 43.2949 55.6191 42.9941 55.5371 42.7402C55.4551 42.4824 55.3398 42.2715 55.1914 42.1074C55.0469 41.9395 54.8691 41.8164 54.6582 41.7383C54.4512 41.6562 54.2227 41.6152 53.9727 41.6152C53.7266 41.6152 53.498 41.6543 53.2871 41.7324C53.0801 41.8105 52.9004 41.9336 52.748 42.1016C52.5996 42.2695 52.4824 42.4824 52.3965 42.7402C52.3105 42.998 52.2676 43.3047 52.2676 43.6602ZM64.5254 44.8145C64.3027 45.5918 63.9395 46.168 63.4355 46.543C62.9355 46.918 62.3027 47.1055 61.5371 47.1055C61.0605 47.1055 60.625 47.0273 60.2305 46.8711C59.8359 46.7109 59.4961 46.4844 59.2109 46.1914C58.9258 45.8945 58.7031 45.5371 58.543 45.1191C58.3867 44.7012 58.3086 44.2344 58.3086 43.7188C58.3086 43.1719 58.3867 42.6816 58.543 42.248C58.7031 41.8145 58.9277 41.4473 59.2168 41.1465C59.5098 40.8457 59.8594 40.6172 60.2656 40.4609C60.6719 40.3008 61.123 40.2207 61.6191 40.2207C62.3496 40.2207 62.9668 40.3945 63.4707 40.7422C63.9746 41.0859 64.3223 41.6152 64.5137 42.3301L62.8145 42.5996C62.7129 42.2402 62.5527 41.9863 62.334 41.8379C62.1191 41.6895 61.8574 41.6152 61.5488 41.6152C61.3301 41.6152 61.127 41.6504 60.9395 41.7207C60.7559 41.7871 60.5957 41.8984 60.459 42.0547C60.3262 42.2109 60.2227 42.418 60.1484 42.6758C60.0742 42.9336 60.0371 43.25 60.0371 43.625C60.0371 44.0195 60.0742 44.3516 60.1484 44.6211C60.2227 44.8867 60.3262 45.1016 60.459 45.2656C60.5918 45.4258 60.748 45.541 60.9277 45.6113C61.1113 45.6816 61.3086 45.7168 61.5195 45.7168C61.8242 45.7168 62.0898 45.6191 62.3164 45.4238C62.5469 45.2285 62.7246 44.918 62.8496 44.4922L64.5254 44.8145ZM65.1758 43.7012C65.1758 43.1504 65.2539 42.6602 65.4102 42.2305C65.5703 41.7969 65.7969 41.4316 66.0898 41.1348C66.3867 40.8379 66.7461 40.6113 67.168 40.4551C67.5898 40.2988 68.0645 40.2207 68.5918 40.2207C69.1152 40.2207 69.5879 40.3008 70.0098 40.4609C70.4355 40.6211 70.7969 40.8516 71.0938 41.1523C71.3945 41.4492 71.625 41.8105 71.7852 42.2363C71.9492 42.6621 72.0312 43.1406 72.0312 43.6719C72.0312 44.207 71.9492 44.6875 71.7852 45.1133C71.625 45.5352 71.3945 45.8945 71.0938 46.1914C70.7969 46.4844 70.4375 46.7109 70.0156 46.8711C69.5977 47.0273 69.1309 47.1055 68.6152 47.1055C68.0879 47.1055 67.6113 47.0273 67.1855 46.8711C66.7637 46.7109 66.4023 46.4844 66.1016 46.1914C65.8047 45.8945 65.5762 45.5371 65.416 45.1191C65.2559 44.6973 65.1758 44.2246 65.1758 43.7012ZM66.9043 43.6602C66.9043 44.0078 66.9473 44.3105 67.0332 44.5684C67.123 44.8262 67.2441 45.041 67.3965 45.2129C67.5488 45.3809 67.7285 45.5078 67.9355 45.5938C68.1426 45.6758 68.3672 45.7168 68.6094 45.7168C68.8516 45.7168 69.0742 45.6758 69.2773 45.5938C69.4844 45.5078 69.6621 45.3809 69.8105 45.2129C69.9629 45.041 70.082 44.8262 70.168 44.5684C70.2539 44.3066 70.2969 43.998 70.2969 43.6426C70.2969 43.2949 70.2559 42.9941 70.1738 42.7402C70.0918 42.4824 69.9766 42.2715 69.8281 42.1074C69.6836 41.9395 69.5059 41.8164 69.2949 41.7383C69.0879 41.6562 68.8594 41.6152 68.6094 41.6152C68.3633 41.6152 68.1348 41.6543 67.9238 41.7324C67.7168 41.8105 67.5371 41.9336 67.3848 42.1016C67.2363 42.2695 67.1191 42.4824 67.0332 42.7402C66.9473 42.998 66.9043 43.3047 66.9043 43.6602ZM73.4609 40.332H78.8223V41.6914H75.1484V42.875H76.8008C77.2617 42.875 77.6562 42.9316 77.9844 43.0449C78.3125 43.1582 78.582 43.3105 78.793 43.502C79.0039 43.6934 79.1582 43.916 79.2559 44.1699C79.3535 44.4199 79.4023 44.6836 79.4023 44.9609C79.4023 45.2891 79.3418 45.5801 79.2207 45.834C79.0996 46.0879 78.9258 46.3008 78.6992 46.4727C78.4766 46.6445 78.2051 46.7754 77.8848 46.8652C77.5645 46.9551 77.2031 47 76.8008 47H73.4609V40.332ZM76.3027 45.6348C76.4551 45.6348 76.6113 45.6309 76.7715 45.623C76.9355 45.6152 77.082 45.5898 77.2109 45.5469C77.3438 45.5039 77.4531 45.4355 77.5391 45.3418C77.625 45.248 77.668 45.1152 77.668 44.9434C77.668 44.8145 77.6445 44.7051 77.5977 44.6152C77.5547 44.5254 77.4824 44.4531 77.3809 44.3984C77.2793 44.3398 77.1445 44.2988 76.9766 44.2754C76.8125 44.248 76.6094 44.2344 76.3672 44.2344H75.1484V45.6348H76.3027ZM87.1836 47H85.3555L84.9277 45.9277H82.1621L81.752 47H79.9648L82.7656 40.332H84.3066L87.1836 47ZM83.5098 42.125C83.4902 42.2344 83.4688 42.332 83.4453 42.418C83.4258 42.5 83.4023 42.5859 83.375 42.6758C83.3477 42.7617 83.3145 42.8574 83.2754 42.9629C83.2402 43.0645 83.1934 43.1895 83.1348 43.3379L82.6953 44.5625H84.377L83.9141 43.3027C83.8555 43.1582 83.8066 43.0352 83.7676 42.9336C83.7324 42.8281 83.7012 42.7344 83.6738 42.6523C83.6465 42.5664 83.6211 42.4824 83.5977 42.4004C83.5781 42.3184 83.5566 42.2266 83.5332 42.125H83.5098ZM92.0469 47V44.334H91.9355C91.834 44.334 91.7441 44.3359 91.666 44.3398C91.5918 44.3438 91.5234 44.3516 91.4609 44.3633C91.3984 44.3711 91.3398 44.3848 91.2852 44.4043C91.2305 44.4199 91.1777 44.4434 91.127 44.4746C91.0801 44.5059 91.0273 44.5449 90.9688 44.5918C90.9102 44.6348 90.8438 44.6973 90.7695 44.7793C90.6953 44.8574 90.6113 44.959 90.5176 45.084C90.4238 45.209 90.3164 45.3633 90.1953 45.5469L89.2402 47H87.2363L88.3262 45.3418C88.5254 45.041 88.7266 44.793 88.9297 44.5977C89.1367 44.4023 89.3477 44.2637 89.5625 44.1816V44.1582C89.2109 44.0684 88.9258 43.9531 88.707 43.8125C88.4922 43.668 88.3242 43.5117 88.2031 43.3438C88.0859 43.1719 88.0059 42.9922 87.9629 42.8047C87.9238 42.6172 87.9043 42.4355 87.9043 42.2598C87.9043 42.0605 87.9316 41.8691 87.9863 41.6855C88.0449 41.502 88.125 41.334 88.2266 41.1816C88.3281 41.0293 88.4512 40.8965 88.5957 40.7832C88.7441 40.6699 88.9102 40.5801 89.0938 40.5137C89.4375 40.3926 89.9766 40.332 90.7109 40.332H93.7344V47H92.0469ZM92.0469 43.0215V41.6973H91.1504C90.8965 41.6973 90.6875 41.6992 90.5234 41.7031C90.3594 41.707 90.2461 41.7129 90.1836 41.7207C90.0156 41.7441 89.8809 41.8105 89.7793 41.9199C89.6816 42.0293 89.6328 42.1699 89.6328 42.3418C89.6328 42.5098 89.6699 42.6426 89.7441 42.7402C89.8184 42.8379 89.918 42.9082 90.043 42.9512C90.1836 42.998 90.5703 43.0215 91.2031 43.0215H92.0469ZM98.8555 47V40.332H104.562V47H102.875V41.6973H100.543V47H98.8555ZM106.004 43.7012C106.004 43.1504 106.082 42.6602 106.238 42.2305C106.398 41.7969 106.625 41.4316 106.918 41.1348C107.215 40.8379 107.574 40.6113 107.996 40.4551C108.418 40.2988 108.893 40.2207 109.42 40.2207C109.943 40.2207 110.416 40.3008 110.838 40.4609C111.264 40.6211 111.625 40.8516 111.922 41.1523C112.223 41.4492 112.453 41.8105 112.613 42.2363C112.777 42.6621 112.859 43.1406 112.859 43.6719C112.859 44.207 112.777 44.6875 112.613 45.1133C112.453 45.5352 112.223 45.8945 111.922 46.1914C111.625 46.4844 111.266 46.7109 110.844 46.8711C110.426 47.0273 109.959 47.1055 109.443 47.1055C108.916 47.1055 108.439 47.0273 108.014 46.8711C107.592 46.7109 107.23 46.4844 106.93 46.1914C106.633 45.8945 106.404 45.5371 106.244 45.1191C106.084 44.6973 106.004 44.2246 106.004 43.7012ZM107.732 43.6602C107.732 44.0078 107.775 44.3105 107.861 44.5684C107.951 44.8262 108.072 45.041 108.225 45.2129C108.377 45.3809 108.557 45.5078 108.764 45.5938C108.971 45.6758 109.195 45.7168 109.438 45.7168C109.68 45.7168 109.902 45.6758 110.105 45.5938C110.312 45.5078 110.49 45.3809 110.639 45.2129C110.791 45.041 110.91 44.8262 110.996 44.5684C111.082 44.3066 111.125 43.998 111.125 43.6426C111.125 43.2949 111.084 42.9941 111.002 42.7402C110.92 42.4824 110.805 42.2715 110.656 42.1074C110.512 41.9395 110.334 41.8164 110.123 41.7383C109.916 41.6562 109.688 41.6152 109.438 41.6152C109.191 41.6152 108.963 41.6543 108.752 41.7324C108.545 41.8105 108.365 41.9336 108.213 42.1016C108.064 42.2695 107.947 42.4824 107.861 42.7402C107.775 42.998 107.732 43.3047 107.732 43.6602ZM119.404 47H117.723V41.7031H116.035V44.6152C116.035 44.9473 116.027 45.2363 116.012 45.4824C115.996 45.7246 115.971 45.9141 115.936 46.0508C115.889 46.2227 115.814 46.375 115.713 46.5078C115.615 46.6406 115.496 46.752 115.355 46.8418C115.219 46.9277 115.066 46.9922 114.898 47.0352C114.734 47.082 114.562 47.1055 114.383 47.1055C114.148 47.1055 113.926 47.084 113.715 47.041C113.508 47.002 113.35 46.9531 113.24 46.8945L113.486 45.6055C113.541 45.6289 113.6 45.6504 113.662 45.6699C113.725 45.6855 113.785 45.6973 113.844 45.7051C113.906 45.7129 113.963 45.7148 114.014 45.7109C114.068 45.7031 114.117 45.6836 114.16 45.6523C114.203 45.6211 114.238 45.5859 114.266 45.5469C114.297 45.5039 114.32 45.4512 114.336 45.3887C114.352 45.3262 114.361 45.248 114.365 45.1543C114.373 45.0605 114.377 44.9434 114.377 44.8027V40.3379H119.404V47ZM120.84 43.7012C120.84 43.1504 120.918 42.6602 121.074 42.2305C121.234 41.7969 121.461 41.4316 121.754 41.1348C122.051 40.8379 122.41 40.6113 122.832 40.4551C123.254 40.2988 123.729 40.2207 124.256 40.2207C124.779 40.2207 125.252 40.3008 125.674 40.4609C126.1 40.6211 126.461 40.8516 126.758 41.1523C127.059 41.4492 127.289 41.8105 127.449 42.2363C127.613 42.6621 127.695 43.1406 127.695 43.6719C127.695 44.207 127.613 44.6875 127.449 45.1133C127.289 45.5352 127.059 45.8945 126.758 46.1914C126.461 46.4844 126.102 46.7109 125.68 46.8711C125.262 47.0273 124.795 47.1055 124.279 47.1055C123.752 47.1055 123.275 47.0273 122.85 46.8711C122.428 46.7109 122.066 46.4844 121.766 46.1914C121.469 45.8945 121.24 45.5371 121.08 45.1191C120.92 44.6973 120.84 44.2246 120.84 43.7012ZM122.568 43.6602C122.568 44.0078 122.611 44.3105 122.697 44.5684C122.787 44.8262 122.908 45.041 123.061 45.2129C123.213 45.3809 123.393 45.5078 123.6 45.5938C123.807 45.6758 124.031 45.7168 124.273 45.7168C124.516 45.7168 124.738 45.6758 124.941 45.5938C125.148 45.5078 125.326 45.3809 125.475 45.2129C125.627 45.041 125.746 44.8262 125.832 44.5684C125.918 44.3066 125.961 43.998 125.961 43.6426C125.961 43.2949 125.92 42.9941 125.838 42.7402C125.756 42.4824 125.641 42.2715 125.492 42.1074C125.348 41.9395 125.17 41.8164 124.959 41.7383C124.752 41.6562 124.523 41.6152 124.273 41.6152C124.027 41.6152 123.799 41.6543 123.588 41.7324C123.381 41.8105 123.201 41.9336 123.049 42.1016C122.9 42.2695 122.783 42.4824 122.697 42.7402C122.611 42.998 122.568 43.3047 122.568 43.6602ZM128.82 40.332H130.508V42.1309C130.508 42.3926 130.521 42.6074 130.549 42.7754C130.576 42.9434 130.629 43.0762 130.707 43.1738C130.785 43.2715 130.893 43.3398 131.029 43.3789C131.17 43.4141 131.354 43.4316 131.58 43.4316C131.834 43.4316 132.061 43.416 132.26 43.3848C132.459 43.3496 132.633 43.2871 132.781 43.1973V40.332H134.469V47H132.781V44.4746C132.531 44.5684 132.281 44.6445 132.031 44.7031C131.785 44.7578 131.51 44.7852 131.205 44.7852C130.885 44.7852 130.58 44.7461 130.291 44.668C130.002 44.5898 129.748 44.4648 129.529 44.293C129.314 44.1211 129.143 43.8984 129.014 43.625C128.885 43.3516 128.82 43.0176 128.82 42.623V40.332ZM136.25 40.332H137.938V43.0156C138.055 42.9961 138.145 42.9648 138.207 42.9219C138.273 42.875 138.332 42.8105 138.383 42.7285C138.434 42.6426 138.482 42.5352 138.529 42.4062C138.58 42.2773 138.648 42.1172 138.734 41.9258C138.887 41.5781 139.045 41.2832 139.209 41.041C139.377 40.7988 139.547 40.6309 139.719 40.5371C139.801 40.4902 139.895 40.4531 140 40.4258C140.109 40.3945 140.219 40.3711 140.328 40.3555C140.441 40.3359 140.553 40.3223 140.662 40.3145C140.775 40.3066 140.877 40.3027 140.967 40.3027C141.107 40.3027 141.242 40.3066 141.371 40.3145C141.504 40.3184 141.615 40.3242 141.705 40.332V41.5215H141.312C141.141 41.5215 140.982 41.541 140.838 41.5801C140.693 41.6191 140.576 41.707 140.486 41.8438C140.439 41.918 140.385 42.0293 140.322 42.1777C140.264 42.3262 140.191 42.4844 140.105 42.6523C140.02 42.8203 139.918 42.9844 139.801 43.1445C139.688 43.3008 139.553 43.4258 139.396 43.5195V43.543C139.529 43.5898 139.66 43.6699 139.789 43.7832C139.922 43.8926 140.049 44.0176 140.17 44.1582C140.291 44.2988 140.402 44.4473 140.504 44.6035C140.605 44.7598 140.693 44.9062 140.768 45.043L141.875 47H139.883L138.699 44.8379C138.621 44.6895 138.516 44.5527 138.383 44.4277C138.25 44.3027 138.102 44.2305 137.938 44.2109V47H136.25V40.332ZM149.305 47H147.477L147.049 45.9277H144.283L143.873 47H142.086L144.887 40.332H146.428L149.305 47ZM145.631 42.125C145.611 42.2344 145.59 42.332 145.566 42.418C145.547 42.5 145.523 42.5859 145.496 42.6758C145.469 42.7617 145.436 42.8574 145.396 42.9629C145.361 43.0645 145.314 43.1895 145.256 43.3379L144.816 44.5625H146.498L146.035 43.3027C145.977 43.1582 145.928 43.0352 145.889 42.9336C145.854 42.8281 145.822 42.7344 145.795 42.6523C145.768 42.5664 145.742 42.4824 145.719 42.4004C145.699 42.3184 145.678 42.2266 145.654 42.125H145.631Z" fill="#5B5B5B"/>
<path d="M50 34V11H56.8828L61 25L65.1017 11H72V34H67.7274V15.895L63.2062 28.5H58.7782L54.2726 15.895V34H50Z" fill="#B8DC3B"/>
<path d="M91 34H87.4976L86.1054 30.3656H79.7315L78.4154 34H75L81.2107 18H84.6152L91 34ZM85.0721 27.6698L82.8749 21.7326L80.7213 27.6698H85.0721Z" fill="#B8DC3B"/>
<path d="M94 16H106L104.5 20H97.8751V34H94V16Z" fill="#B8DC3B"/>
<path d="M103.143 34.1003H108.035L109.798 29.6772H118.215L119.978 34.1003H125.174L116.331 13.0383H111.986L103.143 34.1003ZM114.022 19.2064L116.392 25.164H111.621L114.022 19.2064Z" fill="#E5097F"/>
<path d="M132.301 34.1003C132.886 34.1003 133.459 34.0298 134.024 33.8926C134.586 33.759 135.116 33.5587 135.608 33.2992C136.104 33.0359 136.538 32.7171 136.917 32.3426C137.297 31.9644 137.591 31.5381 137.804 31.056C138.021 30.5741 138.129 30.0477 138.133 29.4729C138.137 28.876 138.048 28.3346 137.87 27.849C137.692 27.3595 137.405 26.9369 137.01 26.5809C136.619 26.2289 136.1 25.9544 135.461 25.7579V25.691C135.949 25.3759 136.34 25.0349 136.642 24.6641C136.944 24.2933 137.161 23.9114 137.3 23.5221C137.44 23.1329 137.51 22.751 137.506 22.3764C137.502 21.6646 137.378 21.0343 137.13 20.4893C136.882 19.9442 136.534 19.4881 136.085 19.1175C135.635 18.7467 135.109 18.4686 134.497 18.2794C133.885 18.0904 133.219 17.9941 132.487 17.9941C131.686 17.9978 130.934 18.1126 130.23 18.3351C129.525 18.5576 128.898 18.8616 128.34 19.2472C127.786 19.629 127.333 20.0666 126.981 20.5522L129.118 22.9548C129.548 22.3802 130.001 21.9649 130.481 21.7091C130.962 21.4532 131.465 21.3273 131.999 21.3309C132.352 21.3309 132.661 21.3827 132.929 21.4867C133.196 21.5941 133.405 21.7535 133.556 21.9649C133.711 22.18 133.784 22.4507 133.788 22.777C133.784 23.1031 133.691 23.3702 133.509 23.5815C133.327 23.7927 133.084 23.9485 132.785 24.0487C132.483 24.1487 132.15 24.2006 131.79 24.2006H130.396V27.5377H131.883C132.472 27.5413 132.952 27.608 133.324 27.7452C133.699 27.8786 133.974 28.064 134.152 28.3013C134.33 28.5385 134.419 28.8093 134.416 29.117C134.412 29.4321 134.342 29.6954 134.203 29.9104C134.063 30.1218 133.878 30.2923 133.653 30.4147C133.424 30.5407 133.18 30.6298 132.917 30.6853C132.654 30.7372 132.394 30.7631 132.139 30.7631C131.693 30.7595 131.256 30.6705 130.818 30.4999C130.381 30.3295 129.962 30.1033 129.567 29.8177C129.169 29.5323 128.812 29.2171 128.491 28.8722L126.47 31.2971C126.683 31.6122 126.954 31.9348 127.279 32.2611C127.608 32.5875 128.003 32.8878 128.472 33.1658C128.936 33.4439 129.486 33.6663 130.121 33.8368C130.752 34.0074 131.48 34.0962 132.301 34.1003Z" fill="#B8DC3B"/>
<path d="M145.292 34.1003L152.537 23.3217V34.1003H156.276V16.7552H153.004L145.76 27.5339V16.7552H142.021V34.1003H145.292Z" fill="#B8DC3B"/>
<path d="M158.867 34.1003H162.55V24.6915L167.015 30.426H167.544L172.032 24.6278V34.1003H175.714V19.233H172.239L167.544 25.4985L162.573 19.233H158.867V34.1003Z" fill="#B8DC3B"/>
<path d="M195.153 13.0383H190.25L185.927 23.3286L179.929 13.0383H174.418L183.582 28.1126L183.309 28.7447C183.171 29.0455 182.974 29.2611 182.71 29.3915C182.451 29.5268 182.121 29.592 181.725 29.5871C181.527 29.5871 181.35 29.5721 181.197 29.5417C181.045 29.5118 180.893 29.4568 180.741 29.3814C180.594 29.3061 180.421 29.206 180.233 29.0755L178.528 33.1676C178.726 33.3229 179 33.4685 179.345 33.6089C179.69 33.7493 180.071 33.8696 180.492 33.96C180.913 34.0502 181.335 34.0953 181.756 34.1003C182.735 34.1003 183.603 33.9047 184.364 33.5185C185.12 33.1376 185.795 32.5708 186.384 31.8336C186.977 31.0916 187.515 30.1789 187.998 29.1055L195.153 13.0383Z" fill="#E5097F"/>
<path d="M196.449 20.472H202.08V34.1003H206.369V20.472H212V16.7552H196.449V20.472Z" fill="#E5097F"/>
</svg>
