<svg width="169" height="44" viewBox="0 0 169 44" fill="none" xmlns="http://www.w3.org/2000/svg">
<g clip-path="url(#clip0_55_565)">
<path fill-rule="evenodd" clip-rule="evenodd" d="M44.2327 16.0342C34.8534 15.8278 18.0199 12.6839 22.3586 0C24.913 0.00403264 25.5751 1.32019 26.9671 4.1035C30.1295 10.4265 34.9761 12.8212 40.8886 14.3764C42.0833 14.6902 43.774 14.7054 44.2327 16.0342Z" fill="#B8DC3B"/>
<path fill-rule="evenodd" clip-rule="evenodd" d="M21.9949 0.0865479C18.9017 9.01275 10.7331 24.1763 0.104492 16.0981C0.897588 13.651 2.34418 13.4231 5.40092 12.9489C12.345 11.8716 16.1025 7.96616 19.3972 2.77963C20.0625 1.73147 20.5992 0.115617 21.9949 0.0865479Z" fill="#E5097F"/>
<path fill-rule="evenodd" clip-rule="evenodd" d="M0.0733816 16.474C7.54092 22.1971 19.326 34.7126 8.41848 42.4039C6.35424 40.8873 6.58627 39.4305 7.08332 36.3541C8.21258 29.3653 5.68824 24.5568 1.81196 19.7963C1.02848 18.8345 -0.330475 17.8207 0.0733816 16.474Z" fill="#B8DC3B"/>
<path fill-rule="evenodd" clip-rule="evenodd" d="M8.76373 42.5495C16.4721 37.1604 31.9242 29.7319 35.8117 42.5636C33.7427 44.0735 32.4396 43.4008 29.6901 41.9738C23.4439 38.7317 18.1263 39.6654 12.436 41.9097C11.2864 42.3636 9.90977 43.3529 8.76373 42.5495Z" fill="#B8DC3B"/>
<path fill-rule="evenodd" clip-rule="evenodd" d="M36.0554 42.2777C33.3517 33.2239 31.1167 16.1175 44.4268 16.3565C45.2124 18.8061 44.175 19.8474 41.9786 22.0418C36.989 27.0269 36.2269 32.4124 36.5863 38.56C36.6594 39.8022 37.1676 41.4274 36.0554 42.2777Z" fill="#B8DC3B"/>
<path d="M55.8721 27.4257H61.0988L62.9816 22.6161H71.9744L73.8573 27.4257H79.4086L69.9616 4.52283H65.3193L55.8721 27.4257ZM67.4942 11.23L70.0264 17.7084H64.9296L67.4942 11.23Z" fill="#E5097F"/>
<path d="M86.2885 27.7023C86.8936 27.7023 87.4867 27.6255 88.0719 27.4761C88.6531 27.3306 89.202 27.1123 89.7109 26.8297C90.2241 26.5428 90.6728 26.1955 91.0657 25.7876C91.4583 25.3756 91.763 24.9111 91.9834 24.386C92.2078 23.861 92.3199 23.2875 92.3239 22.6613C92.328 22.0111 92.2359 21.4214 92.0515 20.8924C91.8672 20.3591 91.5706 19.8987 91.1617 19.5109C90.757 19.1274 90.22 18.8283 89.5588 18.6143V18.5415C90.0637 18.1982 90.4686 17.8267 90.7811 17.4228C91.0936 17.0188 91.3181 16.6028 91.4624 16.1787C91.6068 15.7547 91.6789 15.3387 91.6747 14.9307C91.6707 14.1551 91.5425 13.4685 91.2861 12.8749C91.0296 12.281 90.6688 11.7842 90.2039 11.3804C89.739 10.9765 89.194 10.6735 88.5607 10.4675C87.9276 10.2616 87.2383 10.1566 86.4809 10.1566C85.6512 10.1606 84.8737 10.2858 84.1443 10.5281C83.4149 10.7705 82.7658 11.1017 82.1885 11.5217C81.6155 11.9377 81.1467 12.4143 80.7819 12.9434L82.9941 15.5607C83.439 14.9348 83.908 14.4823 84.405 14.2037C84.9018 13.9249 85.4228 13.7877 85.976 13.7917C86.3405 13.7917 86.6611 13.8481 86.9379 13.9614C87.2143 14.0784 87.4306 14.2521 87.5868 14.4823C87.7472 14.7166 87.8234 15.0116 87.8274 15.367C87.8234 15.7222 87.7272 16.0132 87.5388 16.2434C87.3505 16.4735 87.0981 16.6433 86.7894 16.7524C86.4769 16.8613 86.1322 16.9179 85.7594 16.9179H84.3167V20.5531H85.8556C86.4648 20.5571 86.9618 20.6298 87.3466 20.7793C87.7351 20.9246 88.0197 21.1266 88.2041 21.385C88.3885 21.6435 88.4806 21.9384 88.4766 22.2737C88.4725 22.6169 88.4004 22.9037 88.2563 23.1379C88.112 23.3683 87.9198 23.554 87.6871 23.6874C87.4508 23.8246 87.1983 23.9217 86.9256 23.9822C86.6532 24.0387 86.3847 24.0669 86.1202 24.0669C85.6592 24.0629 85.2063 23.966 84.7535 23.7802C84.3006 23.5945 83.8678 23.3481 83.459 23.037C83.0462 22.726 82.6775 22.3827 82.3447 22.007L80.2529 24.6486C80.4735 24.9919 80.7539 25.3433 81.0905 25.6987C81.4311 26.0543 81.84 26.3814 82.3249 26.6843C82.8058 26.9872 83.3749 27.2295 84.0321 27.4153C84.6854 27.6011 85.4388 27.6979 86.2885 27.7023Z" fill="#B8DC3B"/>
<path d="M99.2659 27.3909L107.243 16.1093V27.3909H111.361V9.23633H107.758L99.7806 20.5181V9.23633H95.6631V27.3909H99.2659Z" fill="#B8DC3B"/>
<path d="M114.26 27.4258H117.916V17.224L122.349 23.4418H122.874L127.33 17.1549V27.4258H130.986V11.3054H127.536L122.874 18.099L117.939 11.3054H114.26V27.4258Z" fill="#B8DC3B"/>
<path d="M152.179 5.19519H147.105L142.631 16.0565L136.423 5.19519H130.72L140.205 21.1058L139.921 21.7731C139.779 22.0906 139.574 22.3181 139.301 22.4558C139.034 22.5986 138.692 22.6674 138.282 22.6622C138.078 22.6622 137.894 22.6464 137.736 22.6143C137.579 22.5827 137.421 22.5246 137.264 22.4452C137.111 22.3657 136.933 22.2599 136.738 22.1222L134.974 26.4413C135.179 26.6053 135.462 26.759 135.819 26.9072C136.176 27.0554 136.571 27.1824 137.006 27.2778C137.442 27.373 137.878 27.4206 138.314 27.4258C139.327 27.4258 140.226 27.2194 141.014 26.8118C141.796 26.4097 142.494 25.8114 143.104 25.0333C143.718 24.2501 144.274 23.2868 144.774 22.1539L152.179 5.19519Z" fill="#E5097F"/>
<path d="M152.809 11.952H158.671V27.4257H163.137V11.952H169V7.73181H152.809V11.952Z" fill="#E5097F"/>
<path d="M62.8281 37.6488H64.0515V35.0829L65.8787 37.6488H67.4307L65.2595 34.7438L67.2703 32.2551H65.8022L64.0515 34.6053V32.2551H62.8281V37.6488ZM67.7366 34.9519C67.7391 35.3821 67.8104 35.7699 67.9519 36.1128C68.0933 36.4559 68.292 36.7487 68.5482 36.9912C68.8044 37.2327 69.1038 37.419 69.4491 37.5475C69.7944 37.6758 70.1717 37.7401 70.5807 37.7412C70.9897 37.7401 71.3668 37.6705 71.7122 37.5346C72.0575 37.3997 72.3582 37.207 72.6131 36.9593C72.8693 36.7113 73.0681 36.4173 73.2095 36.077C73.3509 35.7367 73.4223 35.3617 73.4247 34.9519C73.4223 34.5217 73.3509 34.1339 73.2095 33.791C73.0681 33.4481 72.8693 33.1553 72.6131 32.9126C72.3582 32.67 72.0575 32.4849 71.7122 32.3565C71.3668 32.2282 70.9897 32.1639 70.5807 32.1626C70.2392 32.1639 69.9219 32.2101 69.6301 32.3025C69.3383 32.3949 69.0758 32.5247 68.8426 32.6943C68.6106 32.8625 68.4119 33.0627 68.2463 33.2941C68.0819 33.5253 67.9557 33.7807 67.8691 34.0607C67.7811 34.3406 67.7379 34.6372 67.7366 34.9519ZM69.0363 34.9519C69.0376 34.704 69.0758 34.4805 69.1522 34.2803C69.23 34.0799 69.3369 33.9093 69.4759 33.7653C69.6147 33.6215 69.778 33.5111 69.9651 33.4353C70.1526 33.3581 70.3576 33.3184 70.5807 33.3184C70.7986 33.3184 70.9998 33.3581 71.1871 33.4353C71.3733 33.5111 71.5364 33.6215 71.6764 33.7653C71.8179 33.9093 71.9262 34.0799 72.0052 34.2803C72.0843 34.4805 72.1237 34.704 72.1251 34.9519C72.1251 35.1806 72.0919 35.3938 72.0269 35.5902C71.962 35.7879 71.8639 35.9612 71.7337 36.1104C71.6053 36.258 71.4433 36.375 71.2509 36.4584C71.0586 36.5417 70.8355 36.5843 70.5807 36.5854C70.3654 36.5843 70.164 36.5431 69.978 36.4608C69.7919 36.3788 69.6288 36.2631 69.4873 36.1155C69.3459 35.9677 69.2363 35.7944 69.1575 35.5966C69.0783 35.399 69.0376 35.1844 69.0363 34.9519ZM75.642 37.6488V35.815C75.7069 35.8227 75.7783 35.8278 75.8561 35.8318C75.9338 35.8343 76.0065 35.8367 76.0752 35.8367C76.1441 35.838 76.1988 35.838 76.2383 35.838C76.5492 35.8356 76.8257 35.7868 77.0703 35.6904C77.3151 35.594 77.5228 35.4617 77.6935 35.2936C77.8643 35.1254 77.9942 34.9326 78.0835 34.717C78.1726 34.4998 78.2185 34.2701 78.2185 34.0273C78.2198 33.7923 78.184 33.5675 78.1088 33.3544C78.035 33.1412 77.9152 32.9512 77.747 32.7843C77.5801 32.6161 77.3571 32.4849 77.0806 32.3874C76.8029 32.2912 76.4599 32.2422 76.0549 32.2397C75.9707 32.2397 75.8713 32.2397 75.7554 32.2409C75.6394 32.2422 75.5159 32.2435 75.3858 32.2448C75.2572 32.2462 75.1298 32.2486 75.0049 32.25C74.8799 32.2512 74.7666 32.2524 74.6633 32.2539C74.5614 32.2539 74.48 32.2551 74.4186 32.2551V37.6488H75.642ZM76.1772 33.3954C76.3238 33.3942 76.4525 33.4122 76.5633 33.4507C76.6742 33.4893 76.7608 33.5534 76.8233 33.646C76.8857 33.7371 76.9175 33.8616 76.9188 34.0197C76.9175 34.1494 76.896 34.2584 76.8513 34.3446C76.8078 34.4306 76.7505 34.4974 76.6805 34.5475C76.6091 34.5964 76.5315 34.6323 76.4487 34.6527C76.3645 34.6733 76.2817 34.6822 76.2001 34.6822C76.1108 34.6822 76.0179 34.6784 75.9211 34.672C75.8242 34.6642 75.7311 34.6553 75.642 34.6438V33.4108C75.7248 33.4084 75.7962 33.4058 75.8573 33.4031C75.9173 33.4007 75.9734 33.3994 76.0229 33.398C76.0739 33.3954 76.1249 33.3954 76.1772 33.3954ZM80.4358 37.6488V35.815C80.5007 35.8227 80.5721 35.8278 80.6499 35.8318C80.7276 35.8343 80.8003 35.8367 80.869 35.8367C80.9379 35.838 80.9927 35.838 81.0321 35.838C81.3431 35.8356 81.6195 35.7868 81.8641 35.6904C82.1089 35.594 82.3166 35.4617 82.4873 35.2936C82.6582 35.1254 82.788 34.9326 82.8773 34.717C82.9664 34.4998 83.0124 34.2701 83.0124 34.0273C83.0135 33.7923 82.9779 33.5675 82.9026 33.3544C82.8288 33.1412 82.709 32.9512 82.5408 32.7843C82.374 32.6161 82.1509 32.4849 81.8744 32.3874C81.5967 32.2912 81.2539 32.2422 80.8487 32.2397C80.7647 32.2397 80.6651 32.2397 80.549 32.2409C80.4333 32.2422 80.3096 32.2435 80.1796 32.2448C80.0509 32.2462 79.9236 32.2486 79.7987 32.25C79.6738 32.2512 79.5604 32.2524 79.4572 32.2539C79.3552 32.2539 79.2738 32.2551 79.2124 32.2551V37.6488H80.4358ZM80.971 33.3954C81.1176 33.3942 81.2462 33.4122 81.3571 33.4507C81.468 33.4893 81.5546 33.5534 81.617 33.646C81.6795 33.7371 81.7113 33.8616 81.7125 34.0197C81.7113 34.1494 81.6898 34.2584 81.645 34.3446C81.6016 34.4306 81.5443 34.4974 81.4743 34.5475C81.4029 34.5964 81.3253 34.6323 81.2425 34.6527C81.1583 34.6733 81.0755 34.6822 80.9939 34.6822C80.9046 34.6822 80.8117 34.6784 80.7149 34.672C80.6181 34.6642 80.525 34.6553 80.4358 34.6438V33.4108C80.5186 33.4084 80.59 33.4058 80.6511 33.4031C80.7111 33.4007 80.7671 33.3994 80.8168 33.398C80.8677 33.3954 80.9187 33.3954 80.971 33.3954ZM84.0062 37.6488H87.2557V36.493H85.2296V35.5145H86.9498V34.3588H85.2296V33.4108H87.1792V32.2551H84.0062V37.6488ZM88.4023 37.6488H89.6257V35.0829L91.4529 37.6488H93.0049L90.8337 34.7438L92.8446 32.2551H91.3764L89.6257 34.6053V32.2551H88.4023V37.6488ZM93.693 37.6488H97.5541V38.5735H98.7009V36.493H97.9746V32.2551H96.7512V36.493H94.9163V32.2551H93.693V37.6488ZM100.612 37.6488L102.982 34.297V37.6488H104.206V32.2551H103.135L100.765 35.6069V32.2551H99.5418V37.6488H100.612ZM105.2 34.9519C105.202 35.3821 105.273 35.7699 105.415 36.1128C105.556 36.4559 105.755 36.7487 106.011 36.9912C106.267 37.2327 106.567 37.419 106.912 37.5475C107.258 37.6758 107.635 37.7401 108.044 37.7412C108.453 37.7401 108.83 37.6705 109.175 37.5346C109.521 37.3997 109.821 37.207 110.076 36.9593C110.332 36.7113 110.531 36.4173 110.672 36.077C110.814 35.7367 110.885 35.3617 110.888 34.9519C110.885 34.5217 110.814 34.1339 110.672 33.791C110.531 33.4481 110.332 33.1553 110.076 32.9126C109.821 32.67 109.521 32.4849 109.175 32.3565C108.83 32.2282 108.453 32.1639 108.044 32.1626C107.702 32.1639 107.385 32.2101 107.093 32.3025C106.801 32.3949 106.539 32.5247 106.306 32.6943C106.074 32.8625 105.875 33.0627 105.709 33.2941C105.545 33.5253 105.419 33.7807 105.332 34.0607C105.244 34.3406 105.201 34.6372 105.2 34.9519ZM106.499 34.9519C106.501 34.704 106.539 34.4805 106.615 34.2803C106.693 34.0799 106.8 33.9093 106.939 33.7653C107.078 33.6215 107.241 33.5111 107.428 33.4353C107.616 33.3581 107.821 33.3184 108.044 33.3184C108.262 33.3184 108.463 33.3581 108.65 33.4353C108.836 33.5111 108.999 33.6215 109.139 33.7653C109.281 33.9093 109.389 34.0799 109.468 34.2803C109.547 34.4805 109.587 34.704 109.588 34.9519C109.588 35.1806 109.555 35.3938 109.49 35.5902C109.425 35.7879 109.327 35.9612 109.197 36.1104C109.068 36.258 108.906 36.375 108.714 36.4584C108.521 36.5417 108.298 36.5843 108.044 36.5854C107.828 36.5843 107.627 36.5431 107.441 36.4608C107.255 36.3788 107.092 36.2631 106.95 36.1155C106.809 35.9677 106.699 35.7944 106.62 35.5966C106.541 35.399 106.501 35.1844 106.499 34.9519ZM115.055 37.6488H116.278V32.2551H115.055V34.32H113.105V32.2551H111.882V37.6488H113.105V35.4759H115.055V37.6488ZM120.827 37.6488H122.05V32.2551H120.827V34.32H118.877V32.2551H117.654V37.6488H118.877V35.4759H120.827V37.6488ZM127.593 37.6488H128.816V32.2551H127.593V37.6488ZM125.017 35.0676C125.168 35.0676 125.301 35.0919 125.413 35.1407C125.526 35.1908 125.614 35.2666 125.678 35.3693C125.74 35.4707 125.772 35.6018 125.773 35.7609C125.773 36.0142 125.707 36.2028 125.577 36.3261C125.447 36.4481 125.259 36.5097 125.009 36.5085C124.953 36.5085 124.895 36.5047 124.838 36.4994C124.781 36.493 124.717 36.4852 124.65 36.4777V35.1061C124.726 35.0946 124.794 35.0855 124.854 35.0778C124.913 35.0713 124.967 35.0676 125.017 35.0676ZM124.65 32.2551H123.426V37.6488C123.532 37.6488 123.662 37.6502 123.816 37.6527C123.969 37.6554 124.136 37.6578 124.316 37.6603C124.495 37.663 124.679 37.6643 124.864 37.6643C125.218 37.663 125.531 37.6167 125.805 37.5243C126.079 37.4329 126.311 37.3008 126.498 37.1299C126.687 36.9604 126.83 36.7562 126.927 36.52C127.023 36.2837 127.073 36.0204 127.073 35.7301C127.073 35.3604 127.002 35.0406 126.86 34.7684C126.718 34.4974 126.502 34.2867 126.213 34.1376C125.925 33.9889 125.562 33.9144 125.124 33.9118C125.066 33.9118 124.996 33.9144 124.916 33.9182C124.834 33.9232 124.745 33.9311 124.65 33.9425V32.2551ZM131.263 37.6488L133.633 34.297V37.6488H134.856V32.2551H133.786L131.416 35.6069V32.2551H130.192V37.6488H131.263ZM131.034 30.8683C131.035 31.116 131.099 31.3318 131.225 31.5166C131.351 31.7003 131.534 31.8442 131.775 31.9456C132.016 32.0471 132.309 32.0996 132.655 32.101C132.894 32.0996 133.112 32.0715 133.308 32.0137C133.504 31.9559 133.673 31.8723 133.814 31.7646C133.954 31.6567 134.063 31.527 134.138 31.3754C134.212 31.2253 134.247 31.0556 134.245 30.8683H133.098C133.098 30.9773 133.081 31.0595 133.047 31.1147C133.014 31.1713 132.964 31.2084 132.899 31.2264C132.833 31.2457 132.751 31.2548 132.655 31.2534C132.542 31.2534 132.452 31.2419 132.382 31.2187C132.312 31.1942 132.261 31.1544 132.229 31.0979C132.196 31.0416 132.18 30.9645 132.18 30.8683H131.034ZM137.762 37.6488H141.622V38.5735H142.77V36.493H142.043V32.2551H140.82V36.493H138.985V32.2551H137.762V37.6488ZM143.611 37.6488H146.86V36.493H144.834V35.5145H146.554V34.3588H144.834V33.4108H146.784V32.2551H143.611V37.6488ZM151.179 37.6488H152.403V32.2551H151.179V34.32H149.23V32.2551H148.006V37.6488H149.23V35.4759H151.179V37.6488ZM153.167 33.4108H154.773V37.6488H155.995V33.4108H157.601V32.2551H153.167V33.4108ZM159.589 37.6488V35.815C159.654 35.8227 159.726 35.8278 159.804 35.8318C159.881 35.8343 159.954 35.8367 160.023 35.8367C160.091 35.838 160.146 35.838 160.185 35.838C160.496 35.8356 160.772 35.7868 161.018 35.6904C161.263 35.594 161.47 35.4617 161.641 35.2936C161.812 35.1254 161.941 34.9326 162.03 34.717C162.12 34.4998 162.165 34.2701 162.165 34.0273C162.167 33.7923 162.132 33.5675 162.057 33.3544C161.982 33.1412 161.863 32.9512 161.695 32.7843C161.527 32.6161 161.305 32.4849 161.027 32.3874C160.75 32.2912 160.408 32.2422 160.002 32.2397C159.918 32.2397 159.819 32.2397 159.702 32.2409C159.587 32.2422 159.463 32.2435 159.333 32.2448C159.205 32.2462 159.077 32.2486 158.951 32.25C158.828 32.2512 158.714 32.2524 158.611 32.2539C158.509 32.2539 158.428 32.2551 158.366 32.2551V37.6488H159.589ZM160.125 33.3954C160.271 33.3942 160.399 33.4122 160.511 33.4507C160.622 33.4893 160.708 33.5534 160.771 33.646C160.833 33.7371 160.865 33.8616 160.865 34.0197C160.865 34.1494 160.843 34.2584 160.799 34.3446C160.756 34.4306 160.698 34.4974 160.627 34.5475C160.557 34.5964 160.478 34.6323 160.396 34.6527C160.312 34.6733 160.229 34.6822 160.147 34.6822C160.058 34.6822 159.965 34.6784 159.868 34.672C159.771 34.6642 159.678 34.6553 159.589 34.6438V33.4108C159.673 33.4084 159.743 33.4058 159.805 33.4031C159.864 33.4007 159.92 33.3994 159.97 33.398C160.022 33.3954 160.073 33.3954 160.125 33.3954Z" fill="#A6A6A6"/>
</g>
<defs>
<clipPath id="clip0_55_565">
<rect width="169" height="44" fill="white"/>
</clipPath>
</defs>
</svg>
