<svg width="30" height="30" viewBox="0 0 30 30" fill="none" xmlns="http://www.w3.org/2000/svg">
<path d="M28.6957 20.0393C28.0425 19.2254 27.3003 18.496 26.5824 17.7906C26.3272 17.5397 26.0633 17.2803 25.8089 17.0224C25.0785 16.2812 25.0519 16.0027 25.6302 15.1607C26.0302 14.5803 26.4544 13.9992 26.8647 13.4372C27.2368 12.9273 27.6216 12.4 27.9904 11.8709L28.0661 11.7622C28.771 10.7498 29.4999 9.70299 29.8879 8.44018C29.9886 8.10701 30.0944 7.61673 29.8525 7.20676C29.6108 6.79713 29.142 6.67216 28.8103 6.61379C28.6462 6.58491 28.4833 6.58097 28.3321 6.58097L23.716 6.57754L23.6778 6.57719C22.9799 6.57719 22.5095 6.91859 22.24 7.62101C21.9827 8.29215 21.7 9.00683 21.3775 9.68636C20.7356 11.0395 19.9204 12.5981 18.7408 13.8979L18.691 13.9532C18.5517 14.1086 18.3939 14.2845 18.2785 14.2845C18.2608 14.2845 18.2416 14.281 18.2198 14.2739C17.9754 14.1751 17.8114 13.5611 17.8189 13.2755C17.819 13.2716 17.819 13.2676 17.819 13.2637L17.8158 7.72575C17.8158 7.70655 17.8145 7.68753 17.8121 7.6685C17.6947 6.76825 17.4346 6.20785 16.4517 6.00806C16.4256 6.00266 16.399 6 16.3724 6H11.5726C10.7906 6 10.3597 6.32991 9.95465 6.82371C9.84531 6.95571 9.61773 7.2305 9.73053 7.56384C9.84499 7.90215 10.2165 7.9745 10.3375 7.99798C10.938 8.11661 11.2764 8.49786 11.3723 9.16403C11.5397 10.3208 11.5603 11.5555 11.4371 13.0498C11.4027 13.465 11.3347 13.7858 11.2228 14.0598C11.1968 14.1238 11.1045 14.3325 11.0105 14.3325C10.9806 14.3325 10.8941 14.3204 10.7366 14.2078C10.3643 13.943 10.0919 13.5652 9.7743 13.0984C8.69387 11.5135 7.7871 9.76754 7.0018 7.75953C6.71056 7.02033 6.16663 6.60651 5.46952 6.59434C4.70354 6.58225 4.00908 6.57642 3.34673 6.57642C2.62304 6.57642 1.9521 6.58337 1.29694 6.59751C0.736087 6.60779 0.348144 6.78231 0.144016 7.11659C-0.0604428 7.45113 -0.047148 7.89058 0.18357 8.42252C2.03047 12.6845 3.70503 15.7832 5.61337 18.4705C6.95052 20.3509 8.29173 21.6525 9.83375 22.5663C11.4584 23.531 13.279 24 15.3996 24C15.6399 24 15.8885 23.9939 16.1391 23.9817C17.3713 23.9194 17.8285 23.4565 17.8863 22.2112C17.9138 21.5747 17.9808 20.9073 18.2822 20.3381C18.4725 19.9794 18.6498 19.9794 18.7081 19.9794C18.8204 19.9794 18.9597 20.0331 19.1092 20.1336C19.3774 20.3153 19.6074 20.5588 19.7959 20.7714C19.9734 20.9735 20.1488 21.1775 20.3245 21.3817C20.7035 21.8224 21.0954 22.2779 21.5048 22.71C22.4009 23.6564 23.3881 24.0726 24.522 23.9823H28.7542C28.7632 23.9823 28.7723 23.9819 28.7813 23.9813C29.203 23.9524 29.5682 23.7096 29.7833 23.3151C30.0498 22.8265 30.0444 22.2031 29.769 21.6472C29.4564 21.0185 29.051 20.4815 28.6957 20.0393Z" fill="#A6A6A6"/>
</svg>
